<mxfile host="app.diagrams.net" modified="2023-10-25T10:40:29.540Z" agent="Mozilla/5.0 (Macintosh; Intel Mac OS X 10_15_7) AppleWebKit/537.36 (KHTML, like Gecko) Chrome/118.0.0.0 Safari/537.36" etag="Yw89MnYzUYGazwK9PONd" version="22.0.8" type="github">
  <diagram name="Сторінка-1" id="E5O6WYYs6Uor7RSAVDVs">
    <mxGraphModel dx="954" dy="642" grid="1" gridSize="10" guides="1" tooltips="1" connect="1" arrows="1" fold="1" page="1" pageScale="1" pageWidth="827" pageHeight="1169" math="0" shadow="0">
      <root>
        <mxCell id="0" />
        <mxCell id="1" parent="0" />
        <mxCell id="R8bPfJXog_WtKAHiD4LK-1" value="Contact Me" style="rounded=0;whiteSpace=wrap;html=1;strokeColor=#000000;align=left;" vertex="1" parent="1">
          <mxGeometry x="40" y="40" width="760" height="440" as="geometry" />
        </mxCell>
      </root>
    </mxGraphModel>
  </diagram>
</mxfile>
